[h264 @ 0x55f50593cd40] Reinit context to 1920x1088, pix_fmt: yuv420p
Input #0, mov,mp4,m4a,3gp,3g2,mj2, from '/var/www/html/project/media/video/original/IMG_6603.MOV':
  Metadata:
    major_brand     : qt  
    minor_version   : 0
    compatible_brands: qt  
    creation_time   : 2022-08-06T19:22:29.000000Z
  Duration: 00:00:40.37, start: 0.000000, bitrate: 14512 kb/s
    Stream #0:0(und): Audio: aac (LC) (mp4a / 0x6134706D), 44100 Hz, stereo, fltp, 259 kb/s (default)
    Metadata:
      creation_time   : 2022-08-06T19:22:29.000000Z
      handler_name    : Core Media Audio
    Stream #0:1(und): Video: h264 (High), 1 reference frame (avc1 / 0x31637661), yuv420p(tv, bt709, left), 1920x1080 (1920x1088), 14247 kb/s, 30 fps, 30 tbr, 600 tbn, 1200 tbc (default)
    Metadata:
      creation_time   : 2022-08-06T19:22:29.000000Z
      handler_name    : Core Media Video
      encoder         : H.264
Input #1, png_pipe, from '/var/www/html/project/static/images/templates/logo_vertical.png':
  Duration: N/A, bitrate: N/A
    Stream #1:0: Video: png, 1 reference frame, rgba(pc), 1920x1080 [SAR 2835:2835 DAR 16:9], 25 tbr, 25 tbn, 25 tbc
[h264 @ 0x55f505998500] Reinit context to 1280x720, pix_fmt: yuv420p
Input #2, mov,mp4,m4a,3gp,3g2,mj2, from '/var/www/html/project/static/images/templates/Codino.mp4':
  Metadata:
    major_brand     : mp42
    minor_version   : 1
    compatible_brands: isommp41mp42
    creation_time   : 2021-07-11T07:02:58.000000Z
  Duration: 00:00:02.00, start: 0.000000, bitrate: 1007 kb/s
    Stream #2:0(ita): Audio: aac (LC) (mp4a / 0x6134706D), 44100 Hz, stereo, fltp, 102 kb/s (default)
    Metadata:
      creation_time   : 2021-07-11T07:02:58.000000Z
      handler_name    : Core Media Audio
    Stream #2:1(und): Video: h264 (High), 1 reference frame (avc1 / 0x31637661), yuv420p(tv, bt709, progressive, left), 1280x720 [SAR 1:1 DAR 16:9], 813 kb/s, 25 fps, 25 tbr, 25k tbn, 50k tbc (default)
    Metadata:
      creation_time   : 2021-07-11T07:02:58.000000Z
      handler_name    : Core Media Video
[Parsed_scale_1 @ 0x55f50597f600] w:1280 h:720 flags:'bilinear' interl:0
[Parsed_scale_4 @ 0x55f50597d140] w:-1 h:720 flags:'bilinear' interl:0
[Parsed_scale_7 @ 0x55f5059a0440] w:1280 h:720 flags:'bilinear' interl:0
[Parsed_scale_9 @ 0x55f5059975c0] w:1280 h:720 flags:'bilinear' interl:0
Stream mapping:
  Stream #0:0 (aac) -> concat:in0:a0
  Stream #0:1 (h264) -> split
  Stream #1:0 (png) -> scale
  Stream #2:0 (aac) -> concat:in1:a0
  Stream #2:1 (h264) -> scale
  concat:out:v0 -> Stream #0:0 (libx264)
  concat:out:a0 -> Stream #0:1 (aac)
Press [q] to stop, [?] for help
[h264 @ 0x55f50597a980] Reinit context to 1920x1088, pix_fmt: yuv420p
[h264 @ 0x55f505e0b080] Reinit context to 1280x720, pix_fmt: yuv420p
[Parsed_scale_1 @ 0x55f50738cbc0] w:1280 h:720 flags:'bilinear' interl:0
[Parsed_scale_4 @ 0x55f507398280] w:-1 h:720 flags:'bilinear' interl:0
[Parsed_scale_7 @ 0x55f50739abc0] w:1280 h:720 flags:'bilinear' interl:0
[Parsed_scale_9 @ 0x55f50739c400] w:1280 h:720 flags:'bilinear' interl:0
[graph 0 input from stream 0:1 @ 0x55f5073a0b00] w:1920 h:1080 pixfmt:yuv420p tb:1/600 fr:30/1 sar:0/1 sws_param:flags=2
[graph 0 input from stream 1:0 @ 0x55f5073a1b80] w:1920 h:1080 pixfmt:rgba tb:1/25 fr:25/1 sar:2835/2835 sws_param:flags=2
[graph 0 input from stream 2:1 @ 0x55f507397000] w:1280 h:720 pixfmt:yuv420p tb:1/25000 fr:25/1 sar:1/1 sws_param:flags=2
[graph_0_in_0_0 @ 0x55f507398c40] tb:1/44100 samplefmt:fltp samplerate:44100 chlayout:0x3
[graph_0_in_2_0 @ 0x55f507397e80] tb:1/44100 samplefmt:fltp samplerate:44100 chlayout:0x3
[Parsed_scale_1 @ 0x55f50738cbc0] w:1920 h:1080 fmt:yuv420p sar:0/1 -> w:1280 h:720 fmt:yuv420p sar:0/1 flags:0x2
[Parsed_boxblur_2 @ 0x55f507395d80] luma_radius:36 luma_power:1 chroma_radius:18 chroma_power:1 alpha_radius:36 alpha_power:1 w:1280 chroma_w:640 h:720 chroma_h:360
[Parsed_setsar_3 @ 0x55f5073972c0] w:1280 h:720 sar:0/1 dar:16/9 -> sar:1/1 dar:16/9
[Parsed_scale_4 @ 0x55f507398280] w:1920 h:1080 fmt:yuv420p sar:0/1 -> w:1280 h:720 fmt:yuva420p sar:0/1 flags:0x2
[Parsed_setsar_5 @ 0x55f5073980c0] w:1280 h:720 sar:0/1 dar:16/9 -> sar:1/1 dar:16/9
[Parsed_overlay_6 @ 0x55f507399580] main w:1280 h:720 fmt:yuv420p overlay w:1280 h:720 fmt:yuva420p
[Parsed_overlay_6 @ 0x55f507399580] [framesync @ 0x55f507399aa8] Selected 1/600 time base
[Parsed_overlay_6 @ 0x55f507399580] [framesync @ 0x55f507399aa8] Sync level 2
[Parsed_scale_7 @ 0x55f50739abc0] w:1920 h:1080 fmt:rgba sar:2835/2835 -> w:1280 h:720 fmt:yuva420p sar:1/1 flags:0x2
[Parsed_setsar_8 @ 0x55f50739b6c0] w:1280 h:720 sar:1/1 dar:16/9 -> sar:1/1 dar:16/9
[Parsed_overlay_11 @ 0x55f50739db00] main w:1280 h:720 fmt:yuv420p overlay w:1280 h:720 fmt:yuva420p
[Parsed_overlay_11 @ 0x55f50739db00] [framesync @ 0x55f50739dc68] Selected 1/600 time base
[Parsed_overlay_11 @ 0x55f50739db00] [framesync @ 0x55f50739dc68] Sync level 2
[Parsed_scale_9 @ 0x55f50739c400] w:1280 h:720 fmt:yuv420p sar:1/1 -> w:1280 h:720 fmt:yuv420p sar:1/1 flags:0x2
[Parsed_setsar_10 @ 0x55f50739cec0] w:1280 h:720 sar:1/1 dar:16/9 -> sar:1/1 dar:16/9
[libx264 @ 0x55f5059df580] using SAR=1/1
[libx264 @ 0x55f5059df580] using cpu capabilities: MMX2 SSE2Fast SSSE3 SSE4.2 AVX FMA3 BMI2 AVX2
[libx264 @ 0x55f5059df580] profile High, level 3.1
[libx264 @ 0x55f5059df580] 264 - core 155 r2917 0a84d98 - H.264/MPEG-4 AVC codec - Copyleft 2003-2018 - http://www.videolan.org/x264.html - options: cabac=1 ref=1 deblock=1:0:0 analyse=0x3:0x113 me=hex subme=2 psy=1 psy_rd=1.00:0.00 mixed_ref=0 me_range=16 chroma_me=1 trellis=0 8x8dct=1 cqm=0 deadzone=21,11 fast_pskip=1 chroma_qp_offset=0 threads=22 lookahead_threads=5 sliced_threads=0 nr=0 decimate=1 interlaced=0 bluray_compat=0 constrained_intra=0 bframes=3 b_pyramid=2 b_adapt=1 b_bias=0 direct=1 weightb=1 open_gop=0 weightp=1 keyint=250 keyint_min=25 scenecut=40 intra_refresh=0 rc_lookahead=10 rc=crf mbtree=1 crf=18.0 qcomp=0.60 qpmin=0 qpmax=69 qpstep=4 ip_ratio=1.40 aq=1:1.00
Output #0, mp4, to '/var/www/html/project/media/video/watermarks/IMG_6603.mp4':
  Metadata:
    major_brand     : qt  
    minor_version   : 0
    compatible_brands: qt  
    encoder         : Lavf58.29.100
    Stream #0:0: Video: h264 (libx264), 1 reference frame (avc1 / 0x31637661), yuv420p(progressive), 1280x720 [SAR 1:1 DAR 16:9], q=-1--1, 30 fps, 15360 tbn, 30 tbc (default)
    Metadata:
      encoder         : Lavc58.54.100 libx264
    Side data:
      cpb: bitrate max/min/avg: 0/0/0 buffer size: 0 vbv_delay: -1
    Stream #0:1: Audio: aac (LC) (mp4a / 0x6134706D), 44100 Hz, stereo, fltp, delay 1024, 128 kb/s (default)
    Metadata:
      encoder         : Lavc58.54.100 aac
[Parsed_concat_12 @ 0x55f50739eb80] EOF on in0:a0, 1 streams left in segment.
[Parsed_overlay_6 @ 0x55f507399580] [framesync @ 0x55f507399aa8] Sync level 1
[Parsed_overlay_6 @ 0x55f507399580] [framesync @ 0x55f507399aa8] Sync level 0
[Parsed_overlay_11 @ 0x55f50739db00] [framesync @ 0x55f50739dc68] Sync level 0
[Parsed_concat_12 @ 0x55f50739eb80] EOF on in0:v0, 0 streams left in segment.
[Parsed_concat_12 @ 0x55f50739eb80] Segment finished at pts=40366666
[Parsed_concat_12 @ 0x55f50739eb80] EOF on in1:a0, 1 streams left in segment.
[Parsed_concat_12 @ 0x55f50739eb80] EOF on in1:v0, 0 streams left in segment.
[Parsed_concat_12 @ 0x55f50739eb80] Segment finished at pts=42385351
No more output streams to write to, finishing.
frame= 1261 fps= 56 q=-1.0 Lsize=   14880kB time=00:00:42.39 bitrate=2875.0kbits/s speed=1.88x    
[AVIOContext @ 0x55f505939500] Statistics: 0 seeks, 45 writeouts
video:14180kB audio:655kB subtitle:0kB other streams:0kB global headers:0kB muxing overhead: 0.307006%
Input file #0 (/var/www/html/project/media/video/original/IMG_6603.MOV):
  Input stream #0:0 (audio): 1739 packets read (1311109 bytes); 1737 frames decoded (1778624 samples); 
  Input stream #0:1 (video): 1211 packets read (71891614 bytes); 1211 frames decoded; 
  Total: 2950 packets (73202723 bytes) demuxed
Input file #1 (/var/www/html/project/static/images/templates/logo_vertical.png):
  Input stream #1:0 (video): 1 packets read (93903 bytes); 1 frames decoded; 
  Total: 1 packets (93903 bytes) demuxed
Input file #2 (/var/www/html/project/static/images/templates/Codino.mp4):
  Input stream #2:0 (audio): 89 packets read (26579 bytes); 87 frames decoded (89024 samples); 
  Input stream #2:1 (video): 50 packets read (203365 bytes); 50 frames decoded; 
  Total: 139 packets (229944 bytes) demuxed
Output file #0 (/var/www/html/project/media/video/watermarks/IMG_6603.mp4):
  Output stream #0:0 (video): 1261 frames encoded; 1261 packets muxed (14520166 bytes); 
  Output stream #0:1 (audio): 1826 frames encoded (1869194 samples); 1827 packets muxed (670721 bytes); 
  Total: 3088 packets (15190887 bytes) muxed
[AVIOContext @ 0x55f50597f080] Statistics: 2 seeks, 61 writeouts
[libx264 @ 0x55f5059df580] frame I:7     Avg QP:12.33  size: 44976
[libx264 @ 0x55f5059df580] frame P:409   Avg QP:16.63  size: 20826
[libx264 @ 0x55f5059df580] frame B:845   Avg QP:18.02  size:  6730
[libx264 @ 0x55f5059df580] consecutive B-frames:  7.0%  8.9%  6.4% 77.7%
[libx264 @ 0x55f5059df580] mb I  I16..4: 49.2% 22.6% 28.3%
[libx264 @ 0x55f5059df580] mb P  I16..4: 24.3% 13.5%  2.8%  P16..4: 23.3% 12.6%  7.7%  0.0%  0.0%    skip:15.9%
[libx264 @ 0x55f5059df580] mb B  I16..4:  5.7%  1.7%  0.1%  B16..8: 23.8%  8.7%  0.8%  direct:12.6%  skip:46.6%  L0:41.8% L1:46.0% BI:12.2%
[libx264 @ 0x55f5059df580] 8x8 transform intra:30.2% inter:34.7%
[libx264 @ 0x55f5059df580] coded y,uvDC,uvAC intra: 16.8% 44.0% 6.9% inter: 10.5% 25.9% 0.5%
[libx264 @ 0x55f5059df580] i16 v,h,dc,p: 48% 26%  9% 18%
[libx264 @ 0x55f5059df580] i8 v,h,dc,ddl,ddr,vr,hd,vl,hu: 21% 24% 26%  5%  8%  4%  5%  3%  4%
[libx264 @ 0x55f5059df580] i4 v,h,dc,ddl,ddr,vr,hd,vl,hu: 24% 21% 18%  5%  9%  6%  6%  5%  6%
[libx264 @ 0x55f5059df580] i8c dc,h,v,p: 53% 19% 20%  8%
[libx264 @ 0x55f5059df580] Weighted P-Frames: Y:15.6% UV:5.1%
[libx264 @ 0x55f5059df580] kb/s:2741.68
[aac @ 0x55f50597c980] Qavg: 1777.395
[AVIOContext @ 0x55f505942500] Statistics: 113780671 bytes read, 2393 seeks
[AVIOContext @ 0x55f50593e7c0] Statistics: 93903 bytes read, 0 seeks
[AVIOContext @ 0x55f505999800] Statistics: 1530915 bytes read, 42 seeks
